<svg width="32" height="32" viewBox="0 0 32 32" xmlns="http://www.w3.org/2000/svg">
  <defs>
    <linearGradient id="qrGradient" x1="0%" y1="0%" x2="100%" y2="100%">
      <stop offset="0%" style="stop-color:#3B82F6;stop-opacity:1" />
      <stop offset="100%" style="stop-color:#8B5CF6;stop-opacity:1" />
    </linearGradient>
  </defs>
  
  <!-- QR Code Pattern -->
  <rect x="4" y="4" width="24" height="24" rx="2" fill="url(#qrGradient)" />
  
  <!-- Corner squares -->
  <rect x="6" y="6" width="6" height="6" rx="1" fill="white" />
  <rect x="20" y="6" width="6" height="6" rx="1" fill="white" />
  <rect x="6" y="20" width="6" height="6" rx="1" fill="white" />
  
  <!-- Inner corner dots -->
  <rect x="8" y="8" width="2" height="2" rx="0.5" fill="url(#qrGradient)" />
  <rect x="22" y="8" width="2" height="2" rx="0.5" fill="url(#qrGradient)" />
  <rect x="8" y="22" width="2" height="2" rx="0.5" fill="url(#qrGradient)" />
  
  <!-- Data pattern -->
  <rect x="14" y="8" width="1" height="1" fill="white" />
  <rect x="16" y="8" width="1" height="1" fill="white" />
  <rect x="18" y="8" width="1" height="1" fill="white" />
  
  <rect x="8" y="14" width="1" height="1" fill="white" />
  <rect x="16" y="14" width="1" height="1" fill="white" />
  <rect x="18" y="14" width="1" height="1" fill="white" />
  
  <rect x="14" y="16" width="1" height="1" fill="white" />
  <rect x="16" y="16" width="1" height="1" fill="white" />
  <rect x="18" y="16" width="1" height="1" fill="white" />
  
  <rect x="14" y="18" width="1" height="1" fill="white" />
  <rect x="16" y="18" width="1" height="1" fill="white" />
  <rect x="18" y="18" width="1" height="1" fill="white" />
  
  <rect x="14" y="22" width="1" height="1" fill="white" />
  <rect x="16" y="22" width="1" height="1" fill="white" />
  <rect x="18" y="22" width="1" height="1" fill="white" />
  
  <rect x="22" y="14" width="1" height="1" fill="white" />
  <rect x="22" y="16" width="1" height="1" fill="white" />
  <rect x="22" y="18" width="1" height="1" fill="white" />
</svg>
